<?xml version="1.0" standalone="no"?>
<!DOCTYPE svg PUBLIC "-//W3C//DTD SVG 20010904//EN"
 "http://www.w3.org/TR/2001/REC-SVG-20010904/DTD/svg10.dtd">
<svg version="1.0" xmlns="http://www.w3.org/2000/svg"
 width="200.000000pt" height="200.000000pt" viewBox="0 0 200.000000 200.000000"
 preserveAspectRatio="xMidYMid meet">
<metadata>
Created by potrace 1.13, written by Peter Selinger 2001-2015
</metadata>
<g transform="translate(0.000000,200.000000) scale(0.100000,-0.100000)"
fill="#000000" stroke="none">
<path d="M847 1606 c-69 -19 -127 -63 -163 -124 -36 -59 -42 -87 -51 -229 l-6
-103 156 0 155 0 4 105 c3 93 6 107 26 127 l22 22 23 -22 c27 -28 30 -109 4
-161 -9 -19 -17 -37 -17 -41 0 -11 -114 -213 -251 -447 l-119 -202 0 -100 0
-101 355 0 355 0 0 120 0 120 -155 0 -154 0 93 148 c205 323 238 403 238 564
0 82 -4 105 -25 151 -33 72 -94 131 -165 158 -72 28 -251 36 -325 15z"/>
</g>
</svg>
