<?xml version="1.0" standalone="no"?>
<!DOCTYPE svg PUBLIC "-//W3C//DTD SVG 20010904//EN"
 "http://www.w3.org/TR/2001/REC-SVG-20010904/DTD/svg10.dtd">
<svg version="1.0" xmlns="http://www.w3.org/2000/svg"
 width="200.000000pt" height="200.000000pt" viewBox="0 0 200.000000 200.000000"
 preserveAspectRatio="xMidYMid meet">
<metadata>
Created by potrace 1.13, written by Peter Selinger 2001-2015
</metadata>
<g transform="translate(0.000000,200.000000) scale(0.100000,-0.100000)"
fill="#000000" stroke="none">
<path d="M855 1568 c-9 -46 -34 -130 -45 -149 -4 -9 -16 -47 -25 -85 -10 -38
-21 -74 -26 -79 -4 -6 -18 -49 -30 -95 -12 -47 -25 -90 -30 -95 -4 -6 -17 -46
-29 -90 -11 -44 -29 -96 -38 -115 -13 -27 -18 -68 -20 -172 l-4 -138 176 0
176 0 0 -110 0 -110 175 0 175 0 0 110 0 110 40 0 40 0 0 120 0 120 -40 0 -40
0 0 405 0 405 -224 0 -224 0 -7 -32z"/>
</g>
</svg>
