<?xml version="1.0" standalone="no"?>
<!DOCTYPE svg PUBLIC "-//W3C//DTD SVG 20010904//EN"
 "http://www.w3.org/TR/2001/REC-SVG-20010904/DTD/svg10.dtd">
<svg version="1.0" xmlns="http://www.w3.org/2000/svg"
 width="200.000000pt" height="200.000000pt" viewBox="0 0 200.000000 200.000000"
 preserveAspectRatio="xMidYMid meet">
<metadata>
Created by potrace 1.13, written by Peter Selinger 2001-2015
</metadata>
<g transform="translate(0.000000,200.000000) scale(0.100000,-0.100000)"
fill="#000000" stroke="none">
<path d="M666 1508 c-3 -40 -7 -189 -9 -330 l-4 -258 169 0 c128 0 168 3 168
13 0 6 5 29 11 50 12 46 44 52 56 10 5 -16 8 -123 8 -240 0 -176 -3 -215 -15
-227 -12 -12 -18 -12 -32 -2 -14 10 -18 37 -24 144 l-7 132 -168 0 -169 0 0
-112 c0 -245 63 -343 248 -384 81 -18 245 -15 314 5 65 20 129 72 162 131 l31
55 0 285 c0 316 -3 336 -62 401 -26 28 -51 44 -90 55 -69 20 -184 16 -232 -9
-19 -9 -36 -17 -38 -17 -1 0 -3 32 -3 70 l0 70 185 0 185 0 0 115 0 115 -339
0 -339 0 -6 -72z"/>
</g>
</svg>
