<?xml version="1.0" standalone="no"?>
<!DOCTYPE svg PUBLIC "-//W3C//DTD SVG 20010904//EN"
 "http://www.w3.org/TR/2001/REC-SVG-20010904/DTD/svg10.dtd">
<svg version="1.0" xmlns="http://www.w3.org/2000/svg"
 width="200.000000pt" height="200.000000pt" viewBox="0 0 200.000000 200.000000"
 preserveAspectRatio="xMidYMid meet">
<metadata>
Created by potrace 1.13, written by Peter Selinger 2001-2015
</metadata>
<g transform="translate(0.000000,200.000000) scale(0.100000,-0.100000)"
fill="#000000" stroke="none">
<path d="M910 1655 c-101 -29 -160 -75 -203 -161 -31 -60 -39 -191 -35 -551 5
-388 7 -404 75 -482 70 -82 184 -117 356 -108 64 3 120 12 151 23 64 25 129
83 158 142 21 44 23 61 27 252 5 305 -13 372 -112 434 -41 25 -61 30 -131 34
-68 4 -91 1 -129 -16 l-47 -21 0 108 c0 93 3 110 19 125 17 16 20 16 35 1 11
-12 16 -35 16 -81 l0 -64 175 0 175 0 0 44 c0 24 -7 77 -17 117 -14 66 -22 79
-67 124 -69 69 -119 86 -271 91 -88 3 -135 0 -175 -11z m180 -860 c0 -164 -2
-195 -16 -206 -11 -9 -20 -10 -32 -2 -15 9 -17 34 -17 205 0 152 3 199 14 212
13 15 15 15 32 0 17 -16 19 -35 19 -209z"/>
</g>
</svg>
